<svg width="32" height="32" viewBox="0 0 32 32" fill="none" xmlns="http://www.w3.org/2000/svg">
	<path fill-rule="evenodd" clip-rule="evenodd"
		d="M8.0523 3.51999H0L6.06405 13.6825L3.20215 28.3103H26.8377L32 3.51999H8.05193H8.0523Z" fill="#D62F3A" />
	<path
		d="M13.8214 17.4797C14.392 17.4797 14.9392 17.2519 15.3427 16.8465C15.7461 16.4411 15.9728 15.8913 15.9728 15.318C15.9728 14.1247 15.5425 13.5886 15.1122 12.724C14.1897 10.871 14.9195 9.21857 16.8333 7.53592C17.2636 9.6976 18.5544 11.7728 20.2756 13.1563C21.9967 14.5398 22.8572 16.1827 22.8572 17.912C22.8572 18.7069 22.7014 19.4939 22.3987 20.2283C22.096 20.9626 21.6522 21.6299 21.0929 22.1919C20.5335 22.754 19.8694 23.1998 19.1386 23.504C18.4077 23.8082 17.6244 23.9647 16.8333 23.9647C16.0423 23.9647 15.2589 23.8082 14.5281 23.504C13.7972 23.1998 13.1332 22.754 12.5738 22.1919C12.0144 21.6299 11.5707 20.9626 11.268 20.2283C10.9653 19.4939 10.8094 18.7069 10.8094 17.912C10.8094 16.915 11.1821 15.9284 11.67 15.318C11.67 15.8913 11.8967 16.4411 12.3001 16.8465C12.7036 17.2519 13.2508 17.4797 13.8214 17.4797V17.4797Z"
		fill="white" />
</svg>